<svg xmlns="http://www.w3.org/2000/svg" viewBox="60 84 1134 1134">
<circle cx="627" cy="651" r="561" fill="#FFFFFF"/>
<g fill="#F2ADAE">
<path d="M0 0 C19.88 -1.17 39.45 9.12 56 19 C57.09 19.63 58.18 20.27 59.3 20.92 C64.66 24.15 69.01 27.67 73.3 32.23 C75 34 75 34 77.56 36 C81.16 38.95 84.01 42.45 87 46 C87.78 46.89 88.57 47.77 89.38 48.69 C91.13 51.18 91.66 53 92 56 C92.5 56.16 92.5 56.16 95 57 C96.49 59.08 97.82 61.12 99.12 63.31 C99.3 63.6 99.3 63.6 100.21 65.08 C101.62 67.4 102.89 69.5 103.49 72.17 C104 74 104 74 105.88 75.74 C109.9 80.02 111.21 85.9 113.06 91.38 C113.28 92.03 113.51 92.68 113.74 93.35 C124.21 124.39 124.94 160.01 114 191 C113.77 191.67 113.55 192.33 113.31 193.02 C109.45 204.29 104.63 215.06 98 225 C97.34 225 96.68 225 96 225 C95.89 225.43 95.89 225.43 95.32 227.63 C93.81 231.49 91.66 233.97 88.81 236.88 C87.82 237.92 86.82 238.97 85.83 240.02 C85.35 240.53 84.86 241.03 84.37 241.55 C81.97 244.09 79.71 246.74 77.44 249.38 C76.01 250.98 74.53 252.49 73 254 C72.4 254.64 71.8 255.28 71.19 255.94 C68.65 258.33 65.93 260.11 63 262 C62.65 262.28 62.65 262.28 60.88 263.69 C59 265 59 265 57 265.44 C55 266 55 266 53.39 267.78 C50.2 270.74 46.75 272.28 42.81 274.06 C42.05 274.42 41.28 274.77 40.49 275.13 C35.41 277.44 30.38 279.51 25 281 C22.56 281.69 20.12 282.37 17.69 283.06 C17.1 283.22 17.1 283.22 14.14 284.04 C11 285 11 285 8.82 286.14 C5.84 287.55 3.13 286.6 0 286 C-0.33 284.35 -0.66 282.7 -1 281 C-2.98 280.34 -4.96 279.68 -7 279 C-7.33 277.35 -7.66 275.7 -8 274 C-7.41 273.91 -7.41 273.91 -4.45 273.45 C29.01 268.15 29.01 268.15 41.28 258.27 C43.5 256.63 45.86 255.45 48.31 254.19 C56.14 250.01 62.97 244.5 69 238 C69.68 237.28 70.35 236.56 71.05 235.82 C76.26 230.2 80.77 224.39 85 218 C85.56 217.21 86.13 216.41 86.71 215.59 C107.91 184.58 109.96 145.53 103.64 109.62 C102.74 105.93 101.36 102.52 99.8 99.06 C99 97 99 97 99 94 C98.01 94 97.02 94 96 94 C96.02 94.62 96.03 95.25 96.05 95.89 C96.11 98.76 96.15 101.63 96.19 104.5 C96.21 105.48 96.24 106.46 96.26 107.48 C96.35 116.34 94.46 123.18 88.86 130.23 C84.57 134.3 78.76 136.09 72.94 136.62 C66.85 135.66 62.45 132.84 58.43 128.17 C50.73 116.8 51.55 103.91 51.49 90.79 C51.47 88.33 51.44 85.88 51.41 83.43 C51.41 82.68 51.41 81.94 51.42 81.18 C51.34 76.21 50.71 70.71 47 67 C43.75 66.44 43.75 66.44 40 67 C36.38 70.04 35.15 73.73 34.61 78.33 C34.5 80.75 34.38 83.17 34.28 85.59 C33.82 91.18 32.51 95.87 28.13 99.59 C24.64 101.87 20.95 103.64 17 105 C18.36 107.72 19.87 108 22.62 109.25 C33.13 114.38 39.95 122.03 43.94 133.06 C47.47 143.73 46.57 155.72 42 166 C40.21 169.17 38.19 172.09 36 175 C35.24 176.07 34.47 177.14 33.69 178.25 C30.2 181.82 26.4 183.75 22 186 C21.09 186.58 20.18 187.15 19.25 187.75 C14.14 190.59 8.49 190.15 2.81 190.12 C2.4 190.13 2.4 190.13 0.33 190.14 C-5.75 190.13 -5.75 190.13 -8 189 C-8 184.71 -8 180.42 -8 176 C-6.96 176.05 -5.92 176.09 -4.85 176.14 C6.21 176.49 15.09 175.54 23.54 167.63 C29.08 161.46 31.53 153.69 31.32 145.46 C30.36 138.05 27.48 131.13 22 126 C14.26 120.59 8.61 118.82 -0.81 118.94 C-1.16 118.94 -1.16 118.94 -2.91 118.95 C-4.61 118.96 -6.3 118.98 -8 119 C-8.03 116.85 -8.05 114.71 -8.06 112.56 C-8.07 111.37 -8.09 110.17 -8.1 108.94 C-8 106 -8 106 -7 105 C-4.3 104.93 -1.63 104.91 1.06 104.94 C1.82 104.94 2.58 104.95 3.36 104.95 C5.24 104.96 7.12 104.98 9 105 C8.37 104.28 7.75 103.55 7.1 102.8 C6.69 102.32 6.69 102.32 4.62 99.88 C4.22 99.4 4.22 99.4 2.16 96.99 C-1.33 92.17 -2.24 87.75 -2.3 81.86 C-2.32 80.67 -2.34 79.48 -2.35 78.25 C-2.36 76.98 -2.37 75.7 -2.38 74.39 C-2.4 73.05 -2.41 71.71 -2.43 70.37 C-2.48 66.86 -2.51 63.35 -2.54 59.84 C-2.59 54.22 -2.66 48.61 -2.73 43 C-2.75 41.06 -2.77 39.11 -2.79 37.17 C-2.98 19.62 -2.98 19.62 -5 14 C-5.99 13.67 -6.98 13.34 -8 13 C-8 11.35 -8 9.7 -8 8 C-5.09 6.74 -3.2 6 0 6 C0 4.02 0 2.04 0 0 Z M9 15 C8.95 23.32 8.92 31.64 8.9 39.96 C8.89 43.82 8.87 47.69 8.85 51.55 C8.83 55.28 8.82 59.02 8.81 62.75 C8.81 64.17 8.8 65.59 8.79 67.01 C8.65 86.11 8.65 86.11 12.39 90.7 C14 92 14 92 17 92.5 C20 92 20 92 21.6 90.08 C23.85 85.13 24.1 79.94 24.64 74.57 C25.47 67.88 27.37 62.07 32.68 57.58 C37.13 54.51 41.75 54.23 47 55 C52.38 56.79 57.26 58.83 60.08 63.98 C63.9 73.2 63.57 82.37 63.56 92.19 C63.57 94.74 63.58 97.3 63.6 99.85 C63.62 101.43 63.62 103 63.61 104.58 C63.67 111.25 65.16 116.61 69.31 122 C72 124 72 124 74.94 124.75 C79.43 123.65 81.51 120.78 84 117 C84.97 114.1 85.16 112.14 85.22 109.12 C85.25 108.13 85.27 107.14 85.29 106.12 C85.36 101.57 85.42 97.02 85.46 92.48 C85.49 90.09 85.53 87.7 85.58 85.3 C85.66 81.85 85.7 78.39 85.72 74.93 C85.74 74.4 85.74 74.4 85.82 71.72 C85.8 63.7 83.36 59.78 78 54 C77.47 53.26 76.94 52.51 76.4 51.75 C75.94 51.17 75.48 50.59 75 50 C74.34 50 73.68 50 73 50 C72.75 49.42 72.5 48.85 72.25 48.25 C62.88 31.38 35.8 20.39 18.59 14.63 C15.11 13.78 12.25 13.37 9 15 Z " transform="translate(828,528)"/>
<path d="M0 0 C3.35 1.51 5.22 3.25 7.5 6.12 C8.12 8.62 8.12 8.62 7.5 11.12 C5.04 14.38 3.51 15.89 -0.5 16.81 C-3.5 16.12 -3.5 16.12 -6.44 13.44 C-8.5 10.12 -8.5 10.12 -8.62 7.56 C-6.8 3.6 -4.62 0.23 0 0 Z " transform="translate(884.5,661.875)"/>
<path d="M0 0 C2.93 1.27 3.94 2.1 5.31 5 C5.19 8.42 4.86 10.97 3.25 14 C0.46 15.44 -1.79 14.99 -4.85 14.62 C-6.69 14 -6.69 14 -8.69 11 C-9.19 7.56 -9.19 7.56 -8.69 4 C-5.78 1.3 -4.02 0 0 0 Z " transform="translate(906.6875,693)"/>
<path d="M0 0 C1.9 2.33 2.01 4.07 2.38 7.06 C2 10 2 10 0.44 11.88 C-2.93 13.43 -5.34 13.47 -9 13 C-11.88 10.41 -12.48 7.76 -13 4 C-6.08 -1.65 -6.08 -1.65 0 0 Z " transform="translate(896,727)"/>
<path d="M0 0 C3.96 0.28 6.85 2.78 10 5 C9.76 9.73 9.64 12.13 6.81 16 C4 18 4 18 0.94 18.56 C-2 18 -2 18 -4.44 16.38 C-6 14 -6 14 -5.94 11.12 C-4.65 6.83 -3.2 3.2 0 0 Z " transform="translate(858,731)"/>
<path d="M0 0 C3.31 -0.23 5.73 -0.09 8.88 1 C11 3 11 3 11.5 6.94 C11.32 9.48 10.97 11.08 9.94 13.44 C7.06 15.76 4.64 15.87 1 16 C-1.38 15.44 -1.38 15.44 -3 14 C-4.18 10.91 -4.36 8.94 -3.16 5.83 C-2.17 3.84 -1.13 1.91 0 0 Z " transform="translate(831,759)"/>
<path d="M0 0 C3 1.62 3 1.62 5 4 C5.12 7.56 5.12 7.56 4 11 C1.88 13 1.88 13 -1 14 C-4.44 13.88 -6.95 13.56 -10 11.94 C-11.69 8.66 -10.92 5.47 -10 2 C-7.65 -2.31 -4.26 -1.1 0 0 Z " transform="translate(876,764)"/>
</g>
<g fill="#F6377B">
<path d="M0 0 C4.14 1.38 8.05 3.16 12 5 C12.31 5.14 12.31 5.14 13.87 5.86 C28.42 12.55 41.95 21.27 53 33 C53 33.66 53 34.32 53 35 C53.5 35.16 53.5 35.16 56 36 C60.87 39.95 64.35 44.47 65.5 50.7 C66.12 57.25 66.02 63.79 65.84 70.37 C65.75 73.89 65.72 77.41 65.7 80.93 C65.68 83.18 65.64 85.43 65.61 87.68 C65.6 88.73 65.58 89.77 65.57 90.85 C65.37 97.56 64.33 101.94 60.19 107.38 C58 109 58 109 55.06 109.56 C50.87 108.79 49.59 107.36 47 104 C44.42 98.21 43.58 93.59 43.63 87.29 C43.61 85.64 43.59 83.98 43.58 82.33 C43.57 79.76 43.56 77.19 43.56 74.63 C43.53 51.9 43.53 51.9 36.69 44.5 C30.39 40.98 25.23 38.89 18 40 C12.67 41.7 9.92 44.99 7.1 49.67 C5.2 53.69 4.82 57.8 4.38 62.19 C3.18 73.2 3.18 73.2 0 77 C-3 77.5 -3 77.5 -6 77 C-9.9 73.87 -10.41 69.75 -11 65 C-11.25 59.97 -11.23 54.94 -11.2 49.9 C-11.19 48.46 -11.19 47.01 -11.19 45.57 C-11.18 41.8 -11.16 38.02 -11.14 34.25 C-11.12 30.39 -11.11 26.53 -11.1 22.67 C-11.08 15.11 -11.04 7.56 -11 0 C-7.46 -1.77 -3.73 -0.78 0 0 Z " transform="translate(848,543)"/>
</g>
<g fill="#1A1614">
<path d="M0 0 C1.5 1.31 1.5 1.31 3 3 C3 3.99 3 4.98 3 6 C4.82 6.16 4.82 6.16 14 7 C14 10.63 14 14.26 14 18 C11.69 18.66 9.38 19.32 7 20 C8.67 33.68 10.57 47.33 12.49 60.98 C12.75 62.77 13 64.57 13.24 66.37 C14.71 76.97 16.42 87.45 18.59 97.93 C20.07 105.13 21.11 112.33 22 119.62 C22.33 122.19 22.66 124.75 22.99 127.3 C23.07 127.94 23.07 127.94 23.49 131.16 C24.32 137.36 25.24 143.56 26.19 149.75 C26.27 150.3 26.27 150.3 26.69 153.1 C26.85 154.12 27.01 155.13 27.17 156.17 C27.3 157.06 27.44 157.95 27.58 158.86 C28 161 28 161 29 163 C29.47 166.22 29.87 169.44 30.25 172.68 C30.9 177.9 30.9 177.9 32 179 C34.49 179.15 36.94 179.23 39.44 179.25 C40.13 179.27 40.83 179.29 41.54 179.31 C43.56 179.33 43.56 179.33 47 179 C47.66 178.01 48.32 177.02 49 176 C51.38 175.71 51.38 175.71 54.12 175.81 C55.04 175.84 55.95 175.87 56.88 175.89 C57.58 175.93 58.28 175.96 59 176 C60.16 178.32 60.13 179.7 60.13 182.28 C60.13 183.12 60.14 183.96 60.14 184.83 C60.13 185.71 60.13 186.59 60.12 187.5 C60.13 188.38 60.13 189.26 60.14 190.17 C60.14 191.01 60.13 191.85 60.13 192.72 C60.13 193.49 60.13 194.26 60.13 195.06 C60 197 60 197 59 199 C55.7 199 52.4 199 49 199 C48.34 197.02 47.68 195.04 47 193 C42.71 193 38.42 193 34 193 C34.46 201.01 35.38 208.72 36.84 216.6 C37.93 222.49 38.79 228.39 39.57 234.34 C40 237 40 237 41 239 C41.34 241.14 41.63 243.29 41.91 245.44 C42.08 246.81 42.26 248.18 42.43 249.54 C42.48 249.91 42.48 249.91 42.71 251.74 C43.51 258 44.35 264.25 45.18 270.5 C45.39 272.14 45.61 273.77 45.82 275.41 C46.14 277.83 46.46 280.24 46.78 282.65 C46.83 283.01 46.83 283.01 47.06 284.84 C47.72 289.67 48.75 294.29 50 299 C51.98 299 53.96 299 56 299 C58.32 302.63 58.39 305.76 58 310 C54.77 312.15 53.9 312.25 50.18 312.23 C49.25 312.23 48.33 312.23 47.37 312.22 C46.4 312.21 45.43 312.2 44.44 312.19 C43.47 312.19 42.49 312.19 41.49 312.19 C34.28 312.14 34.28 312.14 32 311 C31.92 309.21 31.86 307.42 31.81 305.62 C31.78 304.63 31.74 303.63 31.71 302.6 C31.76 302.17 31.76 302.17 32 300 C32.99 299.34 33.98 298.68 35 298 C35.17 295.53 35.14 293.39 34.94 290.94 C34.89 290.2 34.83 289.47 34.78 288.71 C33.96 278.66 32.14 268.74 30.46 258.81 C29.7 254.21 29.09 249.59 28.49 244.96 C28 242 28 242 27.05 238.36 C25.96 234.04 25.31 229.72 24.75 225.3 C24.64 224.5 24.53 223.7 24.43 222.88 C24.09 220.36 23.76 217.84 23.44 215.31 C23.11 212.78 22.77 210.24 22.44 207.71 C22.23 206.14 22.03 204.57 21.82 203 C21.34 199.29 20.74 195.68 20 192 C14.22 192.16 14.22 192.16 -15 193 C-18.68 218.39 -18.68 218.39 -20.12 229.66 C-20.21 230.36 -20.3 231.07 -20.39 231.79 C-20.83 235.24 -21.26 238.68 -21.69 242.13 C-21.85 243.38 -22.01 244.63 -22.17 245.91 C-22.3 247.01 -22.44 248.12 -22.58 249.26 C-23 252 -23 252 -24 255 C-24.18 256.91 -24.32 258.83 -24.44 260.75 C-24.79 265.44 -25.69 269.48 -27 274 C-27.31 276.67 -27.51 279.33 -27.71 282.01 C-28.12 286.24 -28.85 290.39 -29.6 294.57 C-30 297 -30 297 -30 299 C-28.35 299.33 -26.7 299.66 -25 300 C-24.97 301.81 -24.95 303.62 -24.94 305.44 C-24.93 306.45 -24.91 307.46 -24.9 308.5 C-25 311 -25 311 -26 312 C-27.77 312.1 -29.54 312.13 -31.31 312.13 C-32.39 312.13 -33.46 312.14 -34.57 312.14 C-35.7 312.13 -36.83 312.13 -38 312.12 C-39.13 312.13 -40.26 312.13 -41.43 312.14 C-42.5 312.14 -43.58 312.13 -44.69 312.13 C-45.18 312.13 -45.18 312.13 -47.7 312.13 C-50 312 -50 312 -51 311 C-51.29 309.55 -51.5 308.09 -51.69 306.62 C-51.79 305.83 -51.9 305.04 -52.01 304.23 C-52 302 -52 302 -50 299 C-46.88 298.31 -46.88 298.31 -44 298 C-42.53 291.73 -41.42 285.51 -40.56 279.12 C-40.31 277.29 -40.05 275.45 -39.79 273.61 C-39.66 272.68 -39.53 271.76 -39.4 270.8 C-38.76 266.32 -38.08 261.85 -37.38 257.38 C-37.25 256.58 -37.13 255.78 -37 254.95 C-36.51 251.86 -35.99 248.97 -35 246 C-34.76 244.25 -34.56 242.5 -34.39 240.75 C-34.27 239.68 -34.16 238.61 -34.05 237.5 C-33.93 236.35 -33.81 235.19 -33.69 234 C-32.19 219.94 -30.17 205.97 -28 192 C-32.29 192.33 -36.58 192.66 -41 193 C-41.66 194.98 -42.32 196.96 -43 199 C-44.46 199.05 -45.92 199.09 -47.38 199.12 C-48.19 199.15 -49 199.17 -49.84 199.2 C-52 199 -52 199 -54 197 C-54.26 195.17 -54.26 195.17 -54.27 192.97 C-54.27 192.18 -54.27 191.39 -54.27 190.57 C-54.27 189.74 -54.26 188.92 -54.25 188.06 C-54.25 187.65 -54.25 187.65 -54.27 185.56 C-54.27 184.77 -54.27 183.98 -54.27 183.16 C-54.26 182.43 -54.26 181.71 -54.26 180.96 C-54 179 -54 179 -52 176 C-49.91 175.6 -49.91 175.6 -47.5 175.62 C-46.71 175.62 -45.91 175.61 -45.09 175.6 C-44.4 175.73 -43.71 175.86 -43 176 C-42.34 176.99 -41.68 177.98 -41 179 C-38.37 179.22 -35.99 179.28 -33.38 179.19 C-32.67 179.17 -31.96 179.16 -31.23 179.15 C-29.49 179.11 -27.74 179.06 -26 179 C-24.11 169.39 -22.68 159.8 -21.62 150.06 C-20.44 139.19 -18.97 128.38 -17.38 117.56 C-17.26 116.81 -17.15 116.05 -17.04 115.27 C-16.73 113.12 -16.41 110.97 -16.09 108.82 C-15.99 108.19 -15.99 108.19 -15.52 105.05 C-15 102 -15 102 -14 99 C-13.78 97.58 -13.59 96.15 -13.42 94.72 C-13.32 93.83 -13.21 92.95 -13.1 92.03 C-12.98 91.05 -12.87 90.07 -12.75 89.06 C-11.43 78.15 -9.96 67.26 -8.44 56.38 C-8.33 55.62 -8.23 54.86 -8.12 54.07 C-7.81 51.85 -7.5 49.62 -7.18 47.4 C-7.08 46.69 -6.98 45.98 -6.88 45.24 C-6.4 41.82 -5.91 38.4 -5.4 34.98 C-5.22 33.74 -5.04 32.5 -4.85 31.23 C-4.68 30.14 -4.52 29.06 -4.35 27.94 C-4.03 25.26 -3.93 22.7 -4 20 C-4.97 19.69 -5.94 19.38 -6.94 19.06 C-10 18 -10 18 -11 17 C-11.1 15.5 -11.13 14 -11.12 12.5 C-11.13 12.09 -11.13 12.09 -11.13 10.03 C-11 8 -11 8 -10 7 C-8.49 6.77 -6.96 6.59 -5.44 6.44 C-4.61 6.35 -3.78 6.27 -2.93 6.18 C-2.61 6.15 -2.61 6.15 -1 6 C-0.67 4.02 -0.34 2.04 0 0 Z M1 81 C-0.56 85.99 -1.47 90.8 -2 96 C-2.17 97.5 -2.33 99 -2.5 100.5 C-2.58 101.25 -2.66 102 -2.75 102.77 C-3.14 106.2 -3.56 109.63 -4 113.06 C-4.14 114.21 -4.29 115.35 -4.44 116.54 C-5 120 -5 120 -5.93 123.51 C-7.41 129.19 -8.06 135 -8.8 140.82 C-9.06 142.8 -9.32 144.78 -9.59 146.76 C-10.47 153.44 -11.25 160.11 -11.75 166.83 C-12 169 -12 169 -13 172 C-13.12 175.62 -13.12 175.62 -13 179 C-12 180 -12 180 -9.22 180.11 C-8.62 180.11 -8.62 180.11 -5.56 180.1 C-4.25 180.09 -2.95 180.09 -1.6 180.09 C-0.21 180.08 1.17 180.07 2.56 180.06 C3.96 180.06 5.35 180.05 6.74 180.05 C10.16 180.04 13.58 180.02 17 180 C18.11 175.82 17.84 172.53 17.18 168.27 C17.08 167.61 16.98 166.96 16.88 166.28 C16.55 164.12 16.21 161.97 15.88 159.81 C15.64 158.3 15.41 156.8 15.18 155.29 C14.83 152.94 14.47 150.59 14.11 148.24 C13.25 142.65 12.42 137.06 11.62 131.47 C11.4 129.93 11.18 128.39 10.96 126.85 C10.64 124.63 10.32 122.41 10 120.2 C8.98 113.03 7.88 106 6 99 C5.64 96.96 5.31 94.92 5 92.88 C4.34 88.74 3.52 84.92 2 81 C1.67 81 1.34 81 1 81 Z " transform="translate(1024,510)"/>
<path d="M0 0 C0.89 -0 1.79 -0 2.71 -0 C3.65 -0 4.59 0 5.56 0.01 C6.03 0.01 6.03 0.01 8.41 -0 C8.86 -0 8.86 -0 11.12 0 C11.95 0 12.78 0 13.63 0 C15.56 0.13 15.56 0.13 16.56 1.13 C16.63 2.82 16.65 4.51 16.62 6.2 C16.62 7.11 16.61 8.03 16.6 8.98 C16.59 9.69 16.57 10.4 16.56 11.13 C15.9 11.46 15.9 11.46 12.56 13.13 C12.56 43.16 12.56 73.19 12.56 104.13 C19.16 104.46 25.76 104.79 32.56 105.13 C32.56 74.44 32.56 43.75 32.56 12.13 C31.24 11.47 29.92 10.81 28.56 10.13 C28.54 8.65 28.52 7.17 28.5 5.7 C28.49 4.87 28.48 4.05 28.46 3.2 C28.56 1.13 28.56 1.13 29.56 0.13 C31.04 0.03 32.52 0 34 0 C34.89 -0 35.79 -0 36.71 -0 C37.65 -0 38.59 0 39.56 0.01 C40.03 0.01 40.03 0.01 42.41 -0 C42.86 -0 42.86 -0 45.12 0 C45.95 0 46.78 0 47.63 0 C49.56 0.13 49.56 0.13 50.56 1.13 C50.63 2.82 50.65 4.51 50.62 6.2 C50.62 7.11 50.61 8.03 50.6 8.98 C50.59 9.69 50.57 10.4 50.56 11.13 C48.91 11.46 47.26 11.79 45.56 12.13 C45.56 104.53 45.56 196.93 45.56 292.13 C46.88 292.46 48.2 292.79 49.56 293.13 C51.15 294.72 50.73 296.38 50.75 298.57 C50.76 299.37 50.78 300.18 50.79 301 C50.56 303.13 50.56 303.13 48.56 305.13 C46.68 305.36 46.68 305.36 44.43 305.33 C43.62 305.32 42.82 305.32 41.99 305.31 C41.15 305.29 40.3 305.28 39.44 305.26 C38.59 305.25 37.74 305.24 36.86 305.23 C34.76 305.21 32.66 305.17 30.56 305.13 C28.64 301.56 28.06 299.23 28.56 295.13 C28.89 294.76 28.89 294.76 30.56 292.89 C33.13 289.36 33.06 287.31 33.04 282.96 C33.05 282.25 33.05 281.54 33.05 280.81 C33.06 278.43 33.04 276.06 33.02 273.68 C33.02 271.98 33.02 270.27 33.02 268.57 C33.02 263.94 33 259.32 32.97 254.69 C32.94 249.86 32.94 245.02 32.94 240.19 C32.92 231.03 32.89 221.88 32.85 212.72 C32.81 202.3 32.78 191.88 32.76 181.45 C32.72 160.01 32.65 138.57 32.56 117.13 C29.26 117.3 29.26 117.3 12.56 118.13 C12.47 140.64 12.4 163.14 12.36 185.65 C12.33 196.1 12.31 206.54 12.26 216.99 C12.22 226.1 12.2 235.2 12.19 244.31 C12.18 249.13 12.17 253.95 12.14 258.78 C12.11 263.31 12.1 267.85 12.11 272.39 C12.11 274.05 12.1 275.72 12.09 277.39 C12.07 279.66 12.07 281.93 12.08 284.2 C12.08 285.48 12.07 286.75 12.07 288.06 C12.56 291.13 12.56 291.13 14.56 292.93 C15.22 293.33 15.88 293.72 16.56 294.13 C17.06 296.32 17.06 296.32 17 298.7 C17 299.48 17 300.27 17 301.07 C16.56 303.13 16.56 303.13 13.56 305.13 C10.67 305.3 7.89 305.37 5 305.32 C4.22 305.32 3.44 305.32 2.63 305.32 C-3.16 305.27 -3.16 305.27 -5.44 304.13 C-5.55 302.53 -5.62 300.93 -5.69 299.32 C-5.71 298.87 -5.71 298.87 -5.83 296.61 C-5.7 295.79 -5.57 294.98 -5.44 294.13 C-4.78 293.68 -4.12 293.23 -3.44 292.77 C-1.44 291.13 -1.44 291.13 -0.94 288.98 C-0.94 288.13 -0.94 287.29 -0.95 286.42 C-0.94 285.45 -0.93 284.47 -0.92 283.47 C-0.93 282.4 -0.94 281.32 -0.96 280.22 C-0.95 279.65 -0.95 279.65 -0.95 276.77 C-0.94 272.94 -0.96 269.11 -0.98 265.27 C-0.99 262.53 -0.98 259.79 -0.98 257.05 C-0.98 251.15 -0.99 245.24 -1.01 239.33 C-1.05 230.79 -1.06 222.25 -1.06 213.71 C-1.07 199.85 -1.1 185.99 -1.14 172.13 C-1.17 158.67 -1.2 145.21 -1.22 131.74 C-1.22 130.91 -1.22 130.08 -1.22 129.23 C-1.23 125.07 -1.23 120.9 -1.24 116.74 C-1.28 82.21 -1.35 47.67 -1.44 13.13 C-2.76 12.47 -4.08 11.81 -5.44 11.13 C-5.46 9.49 -5.48 7.84 -5.5 6.2 C-5.51 5.28 -5.52 4.36 -5.54 3.42 C-5.36 -0.62 -3.57 0 0 0 Z " transform="translate(201.4375,515.8671875)"/>
<path d="M0 0 C1 1 1 1 1.11 2.77 C1.11 3.14 1.11 3.14 1.1 5.04 C1.1 5.44 1.1 5.44 1.09 7.49 C1.08 7.91 1.08 7.91 1.06 10.06 C1.06 10.92 1.05 11.77 1.05 12.65 C1.04 14.77 1.02 16.88 1 19 C-2.63 19 -6.26 19 -10 19 C-10.16 18.5 -10.16 18.5 -11 16 C-14.83 15.99 -18.67 16.05 -22.5 16.12 C-23.04 16.12 -23.04 16.12 -25.77 16.12 C-33.91 16.32 -38.28 18.28 -44 24 C-44.09 25.87 -44.12 27.75 -44.11 29.62 C-44.11 30.82 -44.11 32.02 -44.11 33.26 C-44.11 34.57 -44.1 35.88 -44.1 37.22 C-44.1 38.57 -44.09 39.91 -44.09 41.25 C-44.09 44.8 -44.08 48.34 -44.07 51.88 C-44.06 55.5 -44.05 59.11 -44.05 62.72 C-44.04 69.81 -44.02 76.91 -44 84 C-33.44 84 -22.88 84 -12 84 C-11.84 83.5 -11.84 83.5 -11 81 C-9.52 80.97 -8.04 80.95 -6.56 80.94 C-5.74 80.93 -4.92 80.91 -4.07 80.9 C-2 81 -2 81 -1 82 C-0.9 83.33 -0.87 84.67 -0.87 86 C-0.87 86.8 -0.86 87.61 -0.86 88.44 C-0.87 89.28 -0.87 90.13 -0.88 91 C-0.87 91.85 -0.87 92.69 -0.86 93.56 C-0.86 94.37 -0.87 95.17 -0.87 96 C-0.87 96.74 -0.87 97.49 -0.87 98.25 C-1 100 -1 100 -2 101 C-7.74 101.37 -7.74 101.37 -10 101 C-10.99 100.01 -11.98 99.02 -13 98 C-23.56 97.67 -34.12 97.34 -45 97 C-44.67 160.69 -44.34 224.38 -44 290 C-33.77 290 -23.54 290 -13 290 C-12.34 289.34 -11.68 288.68 -11 288 C-8.87 287.77 -8.87 287.77 -6.44 287.81 C-5.63 287.82 -4.83 287.83 -4 287.83 C-2 288 -2 288 -1 289 C-0.9 291.84 -0.86 294.66 -0.88 297.5 C-0.87 298.3 -0.87 299.1 -0.86 299.92 C-0.87 305.87 -0.87 305.87 -2 307 C-4 307.17 -4 307.17 -6.44 307.19 C-7.24 307.2 -8.04 307.22 -8.87 307.23 C-11 307 -11 307 -13 305 C-14.82 304.73 -14.82 304.73 -17.05 304.71 C-17.89 304.7 -18.72 304.69 -19.58 304.67 C-20.48 304.67 -21.38 304.66 -22.31 304.66 C-22.77 304.65 -22.77 304.65 -25.11 304.61 C-28.08 304.57 -31.04 304.53 -34 304.5 C-37.9 304.46 -41.79 304.41 -45.69 304.34 C-46.59 304.34 -47.49 304.33 -48.42 304.33 C-49.26 304.31 -50.09 304.3 -50.95 304.29 C-51.32 304.28 -51.32 304.28 -53.18 304.27 C-55 304 -55 304 -57 302 C-57.19 299.29 -57.26 296.69 -57.24 293.98 C-57.24 293.14 -57.24 292.3 -57.25 291.43 C-57.25 288.61 -57.24 285.78 -57.23 282.95 C-57.23 280.93 -57.23 278.91 -57.23 276.89 C-57.23 271.4 -57.22 265.9 -57.2 260.4 C-57.19 254.66 -57.19 248.92 -57.19 243.18 C-57.18 232.3 -57.16 221.43 -57.14 210.55 C-57.12 198.17 -57.11 185.79 -57.1 173.41 C-57.08 147.94 -57.04 122.47 -57 97 C-65.58 97 -74.16 97 -83 97 C-83.33 98.32 -83.66 99.64 -84 101 C-85.65 101.03 -87.29 101.05 -88.94 101.06 C-89.85 101.07 -90.77 101.09 -91.71 101.1 C-94 101 -94 101 -95 100 C-95.09 98.66 -95.11 97.31 -95.1 95.96 C-95.09 95.16 -95.09 94.35 -95.09 93.51 C-95.08 92.66 -95.07 91.81 -95.06 90.94 C-95.06 90.08 -95.05 89.23 -95.05 88.35 C-95.04 86.23 -95.02 84.12 -95 82 C-91 79.72 -88.51 79.91 -84 81 C-83.34 81.99 -82.68 82.98 -82 84 C-79.48 84.34 -79.48 84.34 -76.34 84.29 C-75.21 84.28 -74.09 84.27 -72.94 84.26 C-71.76 84.24 -70.59 84.21 -69.38 84.19 C-68.19 84.17 -67.01 84.16 -65.79 84.15 C-62.86 84.11 -59.93 84.06 -57 84 C-57 83.03 -57 82.05 -57.01 81.05 C-57.03 71.9 -57.04 62.75 -57.05 53.59 C-57.06 48.89 -57.06 44.18 -57.08 39.48 C-57.09 34.94 -57.09 30.4 -57.09 25.86 C-57.1 24.13 -57.1 22.39 -57.11 20.66 C-57.11 18.23 -57.11 15.81 -57.11 13.39 C-57.12 12.67 -57.12 11.94 -57.12 11.2 C-57.11 6.23 -57.11 6.23 -56 4 C-54.69 3.99 -53.38 3.97 -52.02 3.96 C-47.16 3.9 -42.29 3.82 -37.42 3.74 C-35.31 3.7 -33.21 3.68 -31.1 3.65 C-28.07 3.62 -25.04 3.57 -22.02 3.51 C-21.07 3.51 -20.13 3.5 -19.16 3.49 C-18.28 3.47 -17.4 3.45 -16.49 3.43 C-16.11 3.43 -16.11 3.43 -14.15 3.4 C-8.25 2.3 -6.74 -0.44 0 0 Z " transform="translate(629,518)"/>
<path d="M0 0 C0.55 0.07 1.11 0.14 1.67 0.21 C6.92 0.84 12.08 1.16 17.37 1.21 C17.76 1.21 17.76 1.21 19.73 1.24 C22.28 1.27 24.83 1.29 27.38 1.32 C29.16 1.34 30.94 1.36 32.72 1.38 C37.38 1.43 42.04 1.48 46.7 1.53 C51.47 1.58 56.24 1.64 61 1.69 C70.33 1.8 79.67 1.9 89 2 C90.94 5.89 90.38 10.94 90.52 15.26 C90.55 16.05 90.59 16.83 90.62 17.64 C90.65 18.36 90.67 19.07 90.7 19.81 C91 22 91 22 92 23.98 C93.49 28.48 93.28 32.82 93.27 37.53 C93.27 38.07 93.27 38.07 93.28 40.79 C93.29 44.39 93.29 47.99 93.29 51.59 C93.29 54.17 93.3 56.74 93.31 59.32 C93.32 64.88 93.33 70.43 93.34 75.99 C93.34 84.02 93.36 92.06 93.38 100.09 C93.42 113.13 93.45 126.17 93.47 139.21 C93.47 139.99 93.47 140.77 93.47 141.57 C93.48 147.9 93.49 154.23 93.5 160.57 C93.51 166.11 93.52 171.65 93.53 177.19 C93.53 177.97 93.53 178.75 93.54 179.55 C93.56 192.54 93.59 205.54 93.62 218.53 C93.65 226.55 93.66 234.56 93.67 242.58 C93.67 248.72 93.69 254.85 93.7 260.99 C93.71 263.51 93.71 266.03 93.71 268.56 C93.71 271.99 93.72 275.42 93.73 278.85 C93.73 279.86 93.73 280.87 93.72 281.91 C93.73 282.82 93.74 283.73 93.74 284.68 C93.75 285.47 93.75 286.26 93.75 287.08 C94 289 94 289 96 291 C96.23 293.35 96.23 293.35 96.19 296.06 C96.18 296.96 96.17 297.86 96.17 298.79 C96 301 96 301 95 302 C92.16 302.1 89.34 302.14 86.5 302.12 C85.7 302.13 84.9 302.13 84.08 302.14 C78.13 302.13 78.13 302.13 77 301 C76.88 299.36 76.82 297.71 76.81 296.06 C76.8 295.17 76.78 294.27 76.77 293.35 C77 291 77 291 79 289 C79.25 287.09 79.25 287.09 79.25 284.7 C79.26 284.24 79.26 284.24 79.27 281.94 C79.27 281.44 79.27 281.44 79.26 278.9 C79.26 277.84 79.27 276.77 79.27 275.68 C79.28 272.09 79.28 268.51 79.27 264.93 C79.28 262.36 79.28 259.8 79.29 257.24 C79.3 251 79.3 244.75 79.3 238.5 C79.3 233.42 79.3 228.34 79.31 223.26 C79.31 222.54 79.31 221.82 79.31 221.08 C79.31 219.61 79.31 218.14 79.31 216.67 C79.32 202.91 79.32 189.14 79.31 175.37 C79.31 162.77 79.32 150.18 79.34 137.58 C79.36 124.65 79.37 111.72 79.36 98.79 C79.36 91.53 79.36 84.28 79.38 77.02 C79.39 70.19 79.39 63.36 79.38 56.53 C79.37 54.02 79.38 51.51 79.38 49 C79.39 45.58 79.39 42.16 79.37 38.74 C79.38 38.24 79.38 38.24 79.4 35.73 C79.35 30.05 78.74 26.01 76 21 C72.63 18.01 69.49 17.47 65 17.64 C61.68 18.24 59.54 19.88 57 22 C54.89 25.16 54.75 25.9 54.74 29.51 C54.73 30.44 54.72 31.37 54.72 32.32 C54.72 33.35 54.72 34.37 54.72 35.42 C54.72 36.51 54.71 37.59 54.7 38.71 C54.69 42.36 54.68 46.01 54.68 49.67 C54.67 52.28 54.66 54.89 54.65 57.5 C54.63 63.13 54.61 68.76 54.6 74.39 C54.59 82.54 54.56 90.68 54.54 98.82 C54.49 112.03 54.45 125.24 54.42 138.45 C54.39 151.28 54.36 164.11 54.32 176.94 C54.32 177.34 54.32 177.34 54.31 179.34 C54.3 183.31 54.29 187.27 54.27 191.24 C54.17 224.16 54.08 257.08 54 290 C54.99 290.33 55.98 290.66 57 291 C57.03 292.65 57.05 294.29 57.06 295.94 C57.07 296.85 57.09 297.77 57.1 298.71 C57 301 57 301 56 302 C53.16 302.1 50.34 302.14 47.5 302.12 C46.7 302.13 45.9 302.13 45.08 302.14 C39.13 302.13 39.13 302.13 38 301 C37.8 298.79 37.8 298.79 37.75 296.06 C37.74 295.61 37.74 295.61 37.67 293.35 C37.78 292.57 37.89 291.8 38 291 C38.99 290.34 39.98 289.68 41 289 C41.38 287.07 41.38 287.07 41.38 284.66 C41.39 283.74 41.4 282.83 41.41 281.88 C41.4 280.87 41.39 279.85 41.39 278.81 C41.39 277.74 41.4 276.66 41.4 275.56 C41.42 271.94 41.41 268.33 41.4 264.71 C41.41 262.13 41.42 259.54 41.42 256.96 C41.44 250.66 41.44 244.35 41.44 238.05 C41.43 232.93 41.44 227.8 41.44 222.68 C41.44 222.32 41.44 222.32 41.44 220.47 C41.44 219 41.45 217.52 41.45 216.04 C41.46 202.15 41.46 188.27 41.44 174.38 C41.43 161.68 41.45 148.97 41.47 136.26 C41.5 123.22 41.51 110.18 41.5 97.14 C41.49 89.82 41.5 82.5 41.51 75.17 C41.53 68.29 41.53 61.4 41.51 54.51 C41.5 51.98 41.51 49.45 41.52 46.92 C41.53 43.47 41.52 40.02 41.5 36.57 C41.51 35.56 41.52 34.56 41.53 33.52 C41.48 29.18 41.44 26.71 39.11 22.95 C34.99 19.14 31.88 17.37 26.07 17.57 C22.41 18.33 19.67 20.45 17 23 C15.82 25.35 15.87 26.74 15.87 29.36 C15.87 30.29 15.86 31.21 15.86 32.16 C15.86 33.18 15.86 34.2 15.87 35.25 C15.86 36.33 15.86 37.41 15.86 38.52 C15.85 42.15 15.85 45.79 15.85 49.43 C15.85 52.03 15.85 54.63 15.84 57.22 C15.84 63.56 15.83 69.9 15.83 76.24 C15.83 81.39 15.83 86.54 15.83 91.69 C15.82 106.28 15.81 120.86 15.81 135.45 C15.81 135.84 15.81 135.84 15.81 137.83 C15.81 138.62 15.81 139.41 15.81 140.22 C15.82 153 15.81 165.77 15.79 178.55 C15.78 191.66 15.77 204.76 15.77 217.87 C15.77 225.23 15.77 232.59 15.76 239.96 C15.75 246.88 15.75 253.8 15.76 260.72 C15.76 263.27 15.75 265.81 15.75 268.36 C15.74 271.82 15.75 275.29 15.75 278.75 C15.75 279.77 15.74 280.79 15.74 281.84 C15.74 282.76 15.75 283.69 15.75 284.64 C15.75 285.44 15.75 286.24 15.75 287.06 C16 289 16 289 18 291 C18.23 293.35 18.23 293.35 18.19 296.06 C18.18 296.96 18.17 297.86 18.17 298.79 C18 301 18 301 17 302 C14.14 302.07 11.3 302.09 8.44 302.06 C7.63 302.06 6.82 302.05 5.99 302.05 C4 302.04 2 302.02 0 302 C-1.1 297.97 -1.93 293.87 0 290 C0.66 290 1.32 290 2 290 C2 289.72 2 289.72 2.01 288.3 C2.11 255.02 2.22 221.75 2.33 188.47 C2.34 184.47 2.36 180.47 2.37 176.47 C2.37 176.08 2.37 176.08 2.38 174.06 C2.42 161.19 2.47 148.31 2.5 135.43 C2.55 122.21 2.59 108.99 2.64 95.77 C2.67 87.62 2.69 79.47 2.72 71.31 C2.73 65.72 2.75 60.12 2.77 54.53 C2.79 51.3 2.8 48.08 2.8 44.85 C2.81 41.35 2.83 37.84 2.84 34.34 C2.84 33.33 2.84 32.32 2.84 31.28 C2.88 25.13 3.27 19.1 4 13 C3.35 12.71 2.71 12.42 2.04 12.11 C0 11 0 11 -0.64 9.16 C-0.7 8.47 -0.76 7.78 -0.81 7.06 C-0.88 6.37 -0.95 5.68 -1.02 4.97 C-1 3 -1 3 0 0 Z " transform="translate(429,520)"/>
<path d="M0 0 C3.79 -0.09 7.58 -0.14 11.38 -0.19 C11.92 -0.2 11.92 -0.2 14.65 -0.26 C15.68 -0.27 16.71 -0.28 17.77 -0.29 C18.73 -0.31 19.68 -0.32 20.66 -0.34 C21.05 -0.28 21.05 -0.28 23 0 C25.14 3.2 25.23 4.02 25.12 7.69 C25.11 8.5 25.09 9.3 25.07 10.14 C25.05 10.75 25.02 11.37 25 12 C23.02 12.66 21.04 13.32 19 14 C18.26 17.33 17.88 20.4 17.88 23.8 C17.87 24.74 17.87 25.69 17.87 26.66 C17.87 27.69 17.88 28.72 17.88 29.78 C17.88 30.87 17.88 31.97 17.88 33.1 C17.88 36.79 17.88 40.48 17.89 44.17 C17.89 46.81 17.89 49.45 17.89 52.09 C17.89 57.78 17.89 63.47 17.89 69.16 C17.9 77.39 17.91 85.61 17.91 93.84 C17.91 107.19 17.92 120.53 17.92 133.88 C17.93 146.84 17.94 159.81 17.95 172.77 C17.95 173.57 17.95 174.37 17.95 175.19 C17.95 179.2 17.95 183.21 17.95 187.22 C17.96 220.48 17.98 253.74 18 287 C18.48 287.07 18.48 287.07 20.91 287.4 C24 288 24 288 25.44 289.62 C26.23 292.99 25.74 295.65 25 299 C23 301 23 301 20.68 301.24 C20.2 301.24 20.2 301.24 17.81 301.23 C16.78 301.23 15.76 301.23 14.7 301.22 C13.62 301.21 12.55 301.2 11.44 301.19 C10.36 301.19 9.28 301.19 8.17 301.19 C0.14 301.14 0.14 301.14 -1 300 C-1.1 298.36 -1.13 296.71 -1.12 295.06 C-1.13 294.17 -1.13 293.27 -1.13 292.35 C-1 290 -1 290 0 288 C1.65 288 3.3 288 5 288 C5.02 253.26 5.04 218.51 5.05 183.77 C5.05 179.67 5.05 175.57 5.05 171.47 C5.06 171.06 5.06 171.06 5.06 169 C5.06 155.77 5.07 142.55 5.08 129.32 C5.09 115.76 5.09 102.2 5.09 88.63 C5.1 80.26 5.1 71.89 5.11 63.51 C5.11 57.77 5.11 52.04 5.11 46.3 C5.11 42.99 5.11 39.68 5.12 36.36 C5.12 32.78 5.12 29.19 5.12 25.6 C5.12 25.08 5.12 25.08 5.13 22.4 C5.13 21.45 5.13 20.49 5.12 19.51 C5.12 18.68 5.12 17.85 5.12 17 C5 15 5 15 4 13 C2.36 12.28 0.69 11.61 -1 11 C-1.03 9.54 -1.05 8.08 -1.06 6.62 C-1.07 5.81 -1.09 5 -1.1 4.16 C-1 2 -1 2 0 0 Z " transform="translate(802,521)"/>
<path d="M0 0 C3.79 -0.03 7.58 -0.05 11.38 -0.06 C11.92 -0.07 11.92 -0.07 14.65 -0.09 C15.16 -0.09 15.16 -0.09 17.77 -0.1 C18.73 -0.1 19.68 -0.11 20.66 -0.11 C23 0 23 0 25 1 C25 4.63 25 8.26 25 12 C24.32 12.02 24.32 12.02 20.88 12.12 C18.37 12.69 18.37 12.69 16 14 C13.69 17.76 12.3 21.8 10.81 25.94 C9.4 29.53 7.63 32.94 5.88 36.38 C5.71 36.7 5.71 36.7 4.89 38.32 C4.25 39.58 3.61 40.83 2.97 42.09 C1.3 45.38 -0.35 48.69 -2 52 C-3.08 54.17 -4.17 56.33 -5.25 58.5 C-5.55 59.09 -5.84 59.69 -6.15 60.3 C-7.74 63.49 -9.34 66.68 -10.95 69.86 C-14.79 77.49 -18.51 85.16 -22.13 92.9 C-29.35 108.34 -29.35 108.34 -32.06 112.71 C-33.36 115.88 -33.25 118.59 -33.24 122.01 C-33.24 122.36 -33.24 122.36 -33.25 124.15 C-33.25 126.51 -33.24 128.88 -33.23 131.24 C-33.23 132.94 -33.23 134.63 -33.23 136.33 C-33.23 140.93 -33.22 145.53 -33.2 150.14 C-33.19 154.95 -33.19 159.76 -33.19 164.57 C-33.18 173.68 -33.16 182.79 -33.14 191.89 C-33.12 202.26 -33.11 212.63 -33.1 223 C-33.08 244.34 -33.04 265.67 -33 287 C-31.35 287.66 -29.7 288.32 -28 289 C-27.97 290.81 -27.95 292.62 -27.94 294.44 C-27.93 295.45 -27.91 296.46 -27.9 297.5 C-28 300 -28 300 -29 301 C-32.64 301.25 -36.29 301.19 -39.94 301.19 C-40.97 301.2 -41.99 301.21 -43.05 301.22 C-44.03 301.23 -45.02 301.23 -46.03 301.23 C-46.48 301.23 -46.48 301.23 -48.77 301.24 C-51 301 -51 301 -53 299 C-53.46 291.7 -53.46 291.7 -51 288 C-48.88 287.31 -48.88 287.31 -47 287 C-46.95 264.61 -46.92 242.22 -46.9 219.83 C-46.89 209.43 -46.87 199.03 -46.85 188.64 C-46.83 179.58 -46.82 170.52 -46.81 161.46 C-46.81 156.66 -46.8 151.86 -46.79 147.07 C-46.78 142.55 -46.77 138.04 -46.77 133.53 C-46.77 131.87 -46.77 130.21 -46.76 128.55 C-46.75 126.29 -46.75 124.03 -46.76 121.77 C-46.76 120.5 -46.76 119.24 -46.75 117.93 C-47 115 -47 115 -49 113 C-49.59 111.62 -50.12 110.22 -50.62 108.81 C-52.41 104.19 -54.57 99.9 -56.94 95.56 C-59.76 90.38 -62.35 85.18 -64.73 79.79 C-67.31 74.11 -70.19 68.57 -73 63 C-77.1 54.88 -81.15 46.74 -85 38.5 C-85.67 37.09 -86.33 35.69 -87 34.28 C-88.38 31.34 -89.72 28.38 -91.04 25.41 C-91.71 23.94 -92.39 22.47 -93.06 21 C-93.21 20.66 -93.21 20.66 -93.95 18.91 C-94.85 17 -94.85 17 -97 14 C-100.68 13.12 -100.68 13.12 -104 13 C-105 12 -105 12 -105.1 9.71 C-105.09 8.8 -105.07 7.88 -105.06 6.94 C-105.05 6.02 -105.04 5.1 -105.04 4.15 C-105.02 3.44 -105.01 2.73 -105 2 C-102.46 0.73 -100.65 0.87 -97.81 0.87 C-96.78 0.87 -95.76 0.86 -94.7 0.86 C-93.62 0.87 -92.55 0.87 -91.44 0.88 C-90.36 0.87 -89.28 0.87 -88.17 0.86 C-87.65 0.86 -87.65 0.86 -85.06 0.87 C-84.11 0.87 -83.17 0.87 -82.19 0.87 C-80 1 -80 1 -79 2 C-78.8 4.18 -78.8 4.18 -78.75 6.88 C-78.72 7.76 -78.7 8.64 -78.67 9.55 C-79.05 12.41 -79.79 13.24 -82 15 C-81.72 15.55 -81.44 16.1 -81.15 16.66 C-78.57 21.77 -76.09 26.92 -73.69 32.12 C-70.24 39.57 -66.59 46.91 -62.89 54.24 C-61.69 56.62 -60.5 59 -59.31 61.38 C-58.92 62.15 -58.53 62.93 -58.13 63.73 C-52.42 75.16 -46.71 86.58 -41 98 C-40.01 98 -39.02 98 -38 98 C-37.87 97.5 -37.87 97.5 -37.24 95 C-36.03 90.75 -34.15 86.97 -32.12 83.06 C-31.79 82.4 -31.45 81.73 -31.1 81.05 C-30.41 79.71 -29.72 78.36 -29.04 77.02 C-27.33 73.69 -25.67 70.35 -24 67 C-22.92 64.83 -21.83 62.67 -20.75 60.5 C-20.45 59.91 -20.16 59.31 -19.85 58.7 C-18.26 55.51 -16.66 52.32 -15.05 49.14 C-11.11 41.31 -7.28 33.45 -3.61 25.49 C-2.23 22.5 -0.83 19.75 1 17 C0.46 12.46 0.46 12.46 -1 11 C-1.1 9.52 -1.13 8.04 -1.12 6.56 C-1.13 5.76 -1.13 4.96 -1.13 4.13 C-1 2 -1 2 0 0 Z " transform="translate(757,521)"/>
<path d="M0 0 C3.34 3.86 5.06 6.61 4.88 11.81 C3.09 18.96 -0.02 23.17 -6 27.31 C-7.99 28.33 -9.99 29.33 -12 30.31 C-14.39 31.63 -16.76 33 -19.12 34.38 C-25.69 38.18 -25.69 38.18 -28.37 39.37 C-30 40.31 -30 40.31 -31 43.31 C-32.15 44.47 -33.31 45.62 -34.48 46.76 C-41.35 53.77 -44.9 61.05 -48 70.31 C-48.37 71.2 -48.73 72.09 -49.11 73.01 C-52.32 84.96 -51.28 100.21 -46 111.31 C-45.67 112.14 -45.35 112.97 -45.01 113.82 C-39.41 126.84 -26.77 138.22 -13.88 143.69 C-6.32 146.57 1.26 147.68 9.31 147.62 C9.73 147.62 9.73 147.62 11.83 147.61 C27.47 147.3 41.76 141.33 53 130.31 C66.91 113.9 70.12 98.21 68.75 77.19 C67.89 69.52 64.27 63.56 60 57.31 C60 56.65 60 55.99 60 55.31 C59.42 55.04 58.85 54.78 58.25 54.5 C56 53.31 56 53.31 54.31 51.69 C51.2 49.84 48.77 50.17 45.22 50.4 C42.61 50.3 41.19 49.73 39 48.31 C37 45.31 37 45.31 37.12 41.88 C38.09 37.96 38.64 36.52 42 34.31 C47.72 33.72 51.36 35.11 56.12 38.06 C56.72 38.41 57.31 38.76 57.93 39.12 C67.62 44.9 73.49 52.07 78 62.31 C78.28 62.91 78.55 63.52 78.84 64.14 C84.47 77.49 83.68 92.38 81 106.31 C80.34 107.3 79.68 108.29 79 109.31 C78.53 110.65 78.09 112.01 77.69 113.38 C74.4 123.4 69.37 131.7 62 139.31 C61.34 139.31 60.68 139.31 60 139.31 C59.67 140.3 59.34 141.29 59 142.31 C51.33 149.37 42.79 153.81 33 157.31 C32.09 157.65 31.19 157.99 30.25 158.34 C12.23 164 -8.74 161.04 -25.37 152.6 C-28.04 150.96 -30.51 149.21 -33 147.31 C-33.75 146.81 -34.5 146.32 -35.27 145.8 C-47.13 137.54 -55.04 124.66 -60 111.31 C-60.28 110.59 -60.55 109.87 -60.84 109.12 C-63.32 101.89 -63.48 94.97 -63.44 87.38 C-63.46 86.18 -63.48 84.98 -63.5 83.74 C-63.49 75.78 -62.15 69.6 -59 62.31 C-58.81 61.78 -58.81 61.78 -57.87 59.07 C-51.74 42.81 -39.09 30.5 -24 22.31 C-24.16 21.58 -24.32 20.85 -24.48 20.09 C-25.7 13.53 -25.74 8.06 -22 2.31 C-16.47 -4.28 -7.26 -4.09 0 0 Z M-11 9.31 C-11.41 9.73 -11.82 10.14 -12.25 10.56 C-13.53 11.84 -14.85 13.09 -16.19 14.31 C-18 16.31 -18 16.31 -18 19.31 C-14.88 17.81 -11.87 16.25 -9 14.31 C-8.67 13.32 -8.34 12.33 -8 11.31 C-8.99 10.65 -9.98 9.99 -11 9.31 Z " transform="translate(333,661.6875)"/>
</g>
</svg>